# xmcd CD database file
#
# Track frame offsets:
#	150
#	16754
#	25513
#	34155
#	45074
#	56699
#	66196
#	76040
#	86686
#	103637
#	111632
#	120320
#	130509
#	140249
#	149610
#	167183
#	176000
#	182715
#	190642
#	210205
#	214702
#	230049
#	248656
#	266061
#	289760
#
# Disc length: 4234 seconds
#
# Revision: 0
# Processed by: cddbd v1.5.1PL2 Copyright (c) Steve Scherf et al.
# Submitted via: CDex 1.51
#
DISCID=5b108819
DTITLE=Various Artist - QUAKE TRANCE ANNUAL 2006 SPRING DISC01
DYEAR=2006
DGENRE=Trance
TTITLE0=BAD BOY (CANNON CRACKER REMIX) - CASCADA
TTITLE1=HOW DO YOU DO (ROB MAYTH REMIX) - CASCADA
TTITLE2=CAN I GET A WITNESS (CLUB MIX) - ROB MAYTH
TTITLE3=A-ROUND (DJ HIBIKI and KEN-BOW MIX) - DELACTION
TTITLE4=WONDER (DJ SATOMI HAPPYTRANCE MIX) - CRAZYRAVERS
TTITLE5=HERE I AM (CLUB MIX) - SPECIAL D.
TTITLE6=SHINING STAR (CLUB MIX) - OLE VAN DANSK
TTITLE7=EL RICO! (PAIN and MAZELA CLUB MIX) - LOCANA MEETS DJ PAIN and DJ BASS CAP
TTITLE8=DRAGOSTEA DIN TEI (EVERYBODY BANZAI MIX) - DJ SATOMI
TTITLE9=HEAVEN IS PLACE ON EARTH (DJ LHASA REMIX) - DJ LHASA
TTITLE10=EVERYTIME WE TOUCH (CLUB MIX) - CASCADA
TTITLE11=DEVIL IN DISGUISE (ROB MAYTH EXTENDED) - AYCAN
TTITLE12=THE SIGN (CLUB MIX) - SVEN-R-G VS. BASS-T
TTITLE13=MR. VAIN - BALD BULL
TTITLE14=PIECE OF HEAVEN (EXTENDED MIX) - AKIRA
TTITLE15=BABY, I LOVE YOUR WAY (ROB MAYTH REMIX) - PARTYCHECKERZ
TTITLE16=LISTEN TO YOUR HEART (FURIOUS F. EZ EXTENDED MIX) - D.H.T
TTITLE17=FREE RADICAL (DJ KEN-BOW MIX) - DELACTION
TTITLE18=JETPLANE (ACCUFACE VOCAL CLUB REMIX) - TROOPER
TTITLE19=SUPERSTAR (DJ SATOMI HAPPYTRANCE MIX) - ALYSSA
TTITLE20=GIULIA (DJ LHASA MIX) - DJ LHASA
TTITLE21=FACE TO FACE (ROCCO VS. BASS-T REMIX) - FUTURE TRANCE UNITED
TTITLE22=GIVE ME MORE (DJ MANIAN VS TUNE UP! RMX) - SPRING FEVER
TTITLE23=DOOP (RE-WASHED) (CLUBGROOVERS RMX) - BEAT BANGERZ
TTITLE24=LOVE&JOY (LOVE S MIX) - PROJECT Y'S FEAT. 田中みゆき
EXTD=YEAR: 2006
EXTT0=
EXTT1=
EXTT2=
EXTT3=
EXTT4=
EXTT5=
EXTT6=
EXTT7=
EXTT8=
EXTT9=
EXTT10=
EXTT11=
EXTT12=
EXTT13=
EXTT14=
EXTT15=
EXTT16=
EXTT17=
EXTT18=
EXTT19=
EXTT20=
EXTT21=
EXTT22=
EXTT23=
EXTT24=
PLAYORDER=
